<?xml version="1.0" encoding="utf-8"?>
<!-- Svg Vector Icons : http://www.onlinewebfonts.com/icon -->
<!DOCTYPE svg PUBLIC "-//W3C//DTD SVG 1.1//EN" "http://www.w3.org/Graphics/SVG/1.1/DTD/svg11.dtd">
<svg version="1.1" xmlns="http://www.w3.org/2000/svg" xmlns:xlink="http://www.w3.org/1999/xlink" x="0px" y="0px" viewBox="0 0 1000 1000" enable-background="new 0 0 1000 1000" xml:space="preserve">
<metadata> Svg Vector Icons : http://www.onlinewebfonts.com/icon </metadata>
<g><g transform="translate(0.000000,511.000000) scale(0.100000,-0.100000)"><path d="M8487,4374.7c-319.1-112.5-627.9-652.5-830.5-1450.3c-445.9-1757.1-296.6-4273,323.2-5459.4c163.6-310.9,362.1-519.6,542.1-568.6c102.3-26.6,253.7-12.3,343.6,32.7c96.2,51.1,239.3,190.2,325.2,317.1c863.2,1272.3,959.4,4809,173.9,6476.1C9110.9,4264.3,8808.2,4489.3,8487,4374.7z M8712,1601c513.4-94.1,875.5-599.3,789.6-1106.6c-106.4-636.1-777.3-1004.3-1350-742.5c-63.4,28.6-122.7,63.4-130.9,77.7c-8.2,14.3-16.4,380.4-16.4,816.2c0,912.3-16.4,840.7,212.7,914.3C8421.6,1627.6,8523.8,1635.8,8712,1601z"/><path d="M7810,4262.2c-102.3-65.5-337.5-204.6-521.6-313C5705.1,3039,4136.2,2409,2757.6,2136.9c-544.1-108.4-773.2-130.9-1401.2-137.1l-583-8.2l-126.8-61.4c-157.5-77.7-251.6-184.1-355.9-398.9C59.5,1052.8,37,416.7,231.4-117.2c102.3-282.3,239.3-450,439.8-542.1c98.2-45,130.9-47,705.7-55.2c638.2-10.2,861.2-34.8,1425.7-147.3C4291.7-1160.4,6124.5-1931.6,7765-2950.2c135-83.9,247.5-151.4,253.7-151.4c4.1,0-34.8,55.2-85.9,122.7c-188.2,245.5-429.6,824.3-562.5,1350C7028.6-270.6,7047,1781,7413.1,3082c143.2,505.2,329.3,930.7,513.4,1176.2c53.2,69.6,90,126.8,81.8,124.8C8000.2,4382.9,7910.2,4327.7,7810,4262.2z"/><path d="M2673.7-1561.3c-2.1-267.9-20.5-644.3-47-943c-79.8-926.6-43-1292.8,159.5-1521.9c120.7-139.1,196.4-159.5,566.6-157.5c358,0,450,20.4,497.1,102.3c28.6,49.1,22.5,79.8-85.9,419.3c-161.6,509.3-218.9,814.1-249.6,1327.5c-10.2,192.3,16.4,801.8,43,943l12.3,65.5l-386.6,92.1c-210.7,51.1-413.2,98.2-445.9,106.4l-61.4,12.3L2673.7-1561.3z"/></g></g>
</svg>